# xmcd
#
# Track frame offsets: 
#        150
#        16257
#        62304
#        76441
#        88053
#        101337
#        122983
#        137283
#        154417
#        180851
#        194190
#        239206
#        266653
#        284570
#        297506
#        310598
#
# Disc length: 4391 seconds
#
# Revision: 1
# Processed by: cddbd v1.5.2PL0 Copyright (c) Steve Scherf et al.
# Submitted via: ExactAudioCopyFreeDBPlugin 1.0
#
DISCID=e6112510
DTITLE=Sueddeutsche Zeitung - Jazz - To young to die
DYEAR=2011
DGENRE=Jazz
TTITLE0=Bobby Timmons: This Here
TTITLE1=Lee Morgan: Totem Pole
TTITLE2=Fats Waller And His Rhythm: Dinah
TTITLE3=Charlie Parker: Donna Lee
TTITLE4=Billie Holiday: Don't Explain
TTITLE5=Art Tatum: Gone With The Wind
TTITLE6=Clifford Brown: Blue And Brown
TTITLE7=Hampton Hawes: You And The Night And The Music
TTITLE8=Bill Evans Trio: Nardis
TTITLE9=Bud Powell: Over The Rainbow
TTITLE10=Esbjörn Svensson Trio: Dodge The Dodo (live)
TTITLE11=Eric Dolphy: Something Sweet, Something Tender
TTITLE12=Nils-Henning Øersted-Petersen: Just In Time
TTITLE13=Duke Ellington and Jimmy Blanton: Bojangles
TTITLE14=Duke Ellington and Jimmy Blanton: Blues
TTITLE15=Volker Kriegel: Postcard For F.W. Amber
EXTD=YEAR: 2011
EXTT0=
EXTT1=
EXTT2=
EXTT3=
EXTT4=
EXTT5=
EXTT6=
EXTT7=
EXTT8=
EXTT9=
EXTT10=
EXTT11=
EXTT12=
EXTT13=
EXTT14=
EXTT15=
PLAYORDER=
